<svg width="68" height="40" viewBox="0 0 68 40" fill="none" xmlns="http://www.w3.org/2000/svg">
<path d="M8.08 23.712L1.12 20.928V19.872L8.08 17.088V18.08L1.536 20.656V20.144L8.08 22.72V23.712ZM8.80312 27.6L14.0831 12.528H15.1231L9.84313 27.6H8.80312ZM59.1669 23.712V22.72L65.7109 20.144V20.656L59.1669 18.08V17.088L66.1269 19.872V20.928L59.1669 23.712Z" fill="white"/>
<path d="M20.574 26V14.8H21.758V26H20.574ZM30.4261 26V24.144L30.3781 23.84V20.736C30.3781 20.0213 30.1755 19.472 29.7701 19.088C29.3755 18.704 28.7835 18.512 27.9941 18.512C27.4501 18.512 26.9328 18.6027 26.4421 18.784C25.9515 18.9653 25.5355 19.2053 25.1941 19.504L24.6821 18.656C25.1088 18.2933 25.6208 18.016 26.2181 17.824C26.8155 17.6213 27.4448 17.52 28.1061 17.52C29.1941 17.52 30.0315 17.792 30.6181 18.336C31.2155 18.8693 31.5141 19.6853 31.5141 20.784V26H30.4261ZM27.5301 26.08C26.9008 26.08 26.3515 25.9787 25.8821 25.776C25.4235 25.5627 25.0715 25.2747 24.8261 24.912C24.5808 24.5387 24.4581 24.112 24.4581 23.632C24.4581 23.1947 24.5595 22.8 24.7621 22.448C24.9755 22.0853 25.3168 21.7973 25.7861 21.584C26.2661 21.36 26.9061 21.248 27.7061 21.248H30.6021V22.096H27.7381C26.9275 22.096 26.3621 22.24 26.0421 22.528C25.7328 22.816 25.5781 23.1733 25.5781 23.6C25.5781 24.08 25.7648 24.464 26.1381 24.752C26.5115 25.04 27.0341 25.184 27.7061 25.184C28.3461 25.184 28.8955 25.04 29.3541 24.752C29.8235 24.4533 30.1648 24.0267 30.3781 23.472L30.6341 24.256C30.4208 24.8107 30.0475 25.2533 29.5141 25.584C28.9915 25.9147 28.3301 26.08 27.5301 26.08ZM38.8876 17.52C39.5703 17.52 40.1676 17.6533 40.6796 17.92C41.2023 18.176 41.6076 18.5707 41.8956 19.104C42.1943 19.6373 42.3436 20.3093 42.3436 21.12V26H41.2076V21.232C41.2076 20.3467 40.9836 19.68 40.5356 19.232C40.0983 18.7733 39.4796 18.544 38.6796 18.544C38.0823 18.544 37.5596 18.6667 37.1116 18.912C36.6743 19.1467 36.333 19.4933 36.0876 19.952C35.853 20.4 35.7356 20.944 35.7356 21.584V26H34.5996V17.6H35.6876V19.904L35.5116 19.472C35.7783 18.864 36.205 18.3893 36.7916 18.048C37.3783 17.696 38.077 17.52 38.8876 17.52ZM48.8361 26.08C48.0255 26.08 47.2948 25.8987 46.6441 25.536C46.0041 25.1627 45.4975 24.656 45.1241 24.016C44.7508 23.3653 44.5641 22.624 44.5641 21.792C44.5641 20.9493 44.7508 20.208 45.1241 19.568C45.4975 18.928 46.0041 18.4267 46.6441 18.064C47.2841 17.7013 48.0148 17.52 48.8361 17.52C49.6681 17.52 50.4041 17.7013 51.0441 18.064C51.6948 18.4267 52.2015 18.928 52.5641 19.568C52.9375 20.208 53.1241 20.9493 53.1241 21.792C53.1241 22.624 52.9375 23.3653 52.5641 24.016C52.2015 24.656 51.6948 25.1627 51.0441 25.536C50.3935 25.8987 49.6575 26.08 48.8361 26.08ZM48.8361 25.072C49.4441 25.072 49.9828 24.9387 50.4521 24.672C50.9215 24.3947 51.2895 24.0107 51.5561 23.52C51.8335 23.0187 51.9721 22.4427 51.9721 21.792C51.9721 21.1307 51.8335 20.5547 51.5561 20.064C51.2895 19.5733 50.9215 19.1947 50.4521 18.928C49.9828 18.6507 49.4495 18.512 48.8521 18.512C48.2548 18.512 47.7215 18.6507 47.2521 18.928C46.7828 19.1947 46.4095 19.5733 46.1321 20.064C45.8548 20.5547 45.7161 21.1307 45.7161 21.792C45.7161 22.4427 45.8548 23.0187 46.1321 23.52C46.4095 24.0107 46.7828 24.3947 47.2521 24.672C47.7215 24.9387 48.2495 25.072 48.8361 25.072Z" fill="#C7CB00"/>
</svg>
